<svg xmlns="http://www.w3.org/2000/svg" fill="none" viewBox="0 0 154 21" height="21" width="154">
<path fill="#07090B" d="M0 20.7868H4.69117L15.2059 4.36765L25.7206 20.7868H30.25L16.6618 0H13.8309L0 20.7868Z"></path>
<path fill="#07090B" d="M123.75 20.7868H128.441L138.956 4.36765L149.39 20.7868H154L140.331 0H137.5L123.75 20.7868Z"></path>
<path fill="#07090B" d="M85.6543 0H90.3455L100.86 16.4191L111.375 0H115.904L102.316 20.7868H99.4852L85.6543 0Z"></path>
<path fill="#07090B" d="M55.4045 7.60294V5.0147C55.4045 2.2647 53.1398 0 50.3898 0H32.1104V20.7868H35.8309V11.4044H46.6692L51.7648 20.7868H55.8089L50.7133 11.4044H51.603C53.7059 11.4044 55.4045 9.70588 55.4045 7.60294ZM50.3898 8.65441H35.9118V3.39706H50.3898C51.3603 3.39706 52.0883 4.125 52.0883 5.09559V6.875C52.0883 7.84558 51.3603 8.65441 50.3898 8.65441Z"></path>
<path fill="#07090B" d="M80.5588 0H63.5735C60.8235 0 58.6396 2.18382 58.6396 4.93382V15.8529C58.6396 18.6029 60.8235 20.7868 63.5735 20.7868H80.5588C83.3088 20.7868 85.4926 18.6029 85.4926 15.8529V4.93382C85.4926 2.18382 83.3088 0 80.5588 0ZM81.3676 15.7721C81.3676 16.7426 80.5588 17.4706 79.6691 17.4706H64.5441C63.5735 17.4706 62.8455 16.6618 62.8455 15.7721V5.0147C62.8455 4.04412 63.6544 3.31617 64.5441 3.31617H79.6691C80.6396 3.31617 81.3676 4.125 81.3676 5.0147V15.7721Z"></path>
<path fill="#07090B" d="M121.809 0H117.522V20.7868H121.809V0Z"></path>
</svg>
